<?xml version="1.0" encoding="UTF-8" standalone="no"?>
<svg width="16px" height="16px" viewBox="0 0 16 16" version="1.1" xmlns="http://www.w3.org/2000/svg" xmlns:xlink="http://www.w3.org/1999/xlink">
    <!-- Generator: Sketch 40 (33762) - http://www.bohemiancoding.com/sketch -->
    <title>Archives</title>
    <desc>Created with Sketch.</desc>
    <defs></defs>
    <g id="Page-1" stroke="none" stroke-width="1" fill="none" fill-rule="evenodd">
        <g id="Archives">
            <circle id="Oval" fill="#333333" cx="8" cy="8" r="8"></circle>
            <g id="Archive" transform="translate(3.000000, 3.000000)" fill="#FFFFFF">
                <path d="M0.22,9.02 L0.22,0.22 L2.86,0.22 L2.86,9.02 L0.22,9.02 L0.22,9.02 Z M0.792,6.41036 C0.792,6.83716 1.13036,7.18476 1.5444,7.18476 C1.9624,7.18476 2.30076,6.83716 2.30076,6.41036 C2.30076,5.97916 1.9624,5.63156 1.5444,5.63156 C1.13036,5.632 0.792,5.97916 0.792,6.41036 L0.792,6.41036 Z" id="Shape"></path>
                <path d="M3.3,9.02 L3.3,0.22 L5.94,0.22 L5.94,9.02 L3.3,9.02 L3.3,9.02 Z M3.872,6.41036 C3.872,6.83716 4.21036,7.18476 4.6244,7.18476 C5.0424,7.18476 5.38076,6.83716 5.38076,6.41036 C5.38076,5.97916 5.0424,5.63156 4.6244,5.63156 C4.21036,5.632 3.872,5.97916 3.872,6.41036 L3.872,6.41036 Z" id="Shape"></path>
                <path d="M8.14,9.02 L6.38,0.73964 L9.02,0.22 L10.78,8.58 L8.14,9.02 L8.14,9.02 Z M8.23416,6.7628 C8.33096,7.17596 8.7538,7.4228 9.1718,7.3128 C9.58584,7.2028 9.83928,6.7936 9.74248,6.3932 C9.64568,5.9972 9.23956,5.75036 8.82992,5.8432 C8.40752,5.94 8.13692,6.3536 8.23416,6.7628 L8.23416,6.7628 Z" id="Shape"></path>
            </g>
        </g>
    </g>
</svg>