<?xml version="1.0" encoding="UTF-8" standalone="no"?>
<svg width="16px" height="16px" viewBox="0 0 16 16" version="1.1" xmlns="http://www.w3.org/2000/svg" xmlns:xlink="http://www.w3.org/1999/xlink">
    <!-- Generator: Sketch 40 (33762) - http://www.bohemiancoding.com/sketch -->
    <title>Catégories</title>
    <desc>Created with Sketch.</desc>
    <defs></defs>
    <g id="Page-1" stroke="none" stroke-width="1" fill="none" fill-rule="evenodd">
        <g id="Catégories">
            <circle id="Oval" fill="#333333" cx="8" cy="8" r="8"></circle>
            <path d="M5.94255221,5.94165968 C5.68542887,6.19832469 5.26834824,6.19832469 5.01168324,5.94165968 C4.75455991,5.68407802 4.75455991,5.26699739 5.01168324,5.00941573 C5.26834824,4.75275072 5.68542887,4.75275072 5.94255221,5.00941573 C6.20013387,5.26699739 6.20013387,5.68407802 5.94255221,5.94165968 L5.94255221,5.94165968 Z M7.42387594,3.20176077 C7.29600177,3.07480326 6.86425457,2.9968871 6.66671418,3.00009541 L3.916732,3.00009541 C3.52302622,3.00605371 3.00557124,3.52305036 3.00007127,3.91675614 L3.00007127,6.66673832 C2.99732129,6.86427871 3.07432079,7.2974009 3.2012783,7.42390008 L3.20081997,7.42527507 L9.87502673,14.0000241 L14,9.87505087 L7.42570926,3.19946912 L7.42387594,3.20176077 L7.42387594,3.20176077 Z" id="Shape" fill="#FFFFFF"></path>
        </g>
    </g>
</svg>